<svg xmlns="http://www.w3.org/2000/svg" width="31.676" height="31.676" viewBox="0 0 31.676 31.676">
  <g id="help" transform="translate(-1032 -18)">
    <g id="contact-support" transform="translate(1032 18)">
      <path fill="#1d3557" id="Path_20511" data-name="Path 20511" d="M22.542,29.757h2.376a11,11,0,1,0,0-22H18.758a11,11,0,0,0-11,11c0,7.093,4.044,11.334,8.3,13.89a27.614,27.614,0,0,0,5.91,2.62q.3.094.575.173Zm1.76,7.919s-.673-.113-1.76-.408C17.958,36.027,6,31.561,6,18.758A12.759,12.759,0,0,1,18.758,6h6.159a12.758,12.758,0,1,1,0,25.517H24.3Z" transform="translate(-6 -6)" fill-rule="evenodd"/>
    </g>
    <path fill="#1d3557" id="Path_20512" data-name="Path 20512" d="M6.234-3.138H4.117q-.008-.457-.008-.556a3.7,3.7,0,0,1,.34-1.693A5.163,5.163,0,0,1,5.811-6.881a10.191,10.191,0,0,0,1.22-1.087,1.454,1.454,0,0,0,.307-.9,1.511,1.511,0,0,0-.544-1.166,2.119,2.119,0,0,0-1.465-.486,2.219,2.219,0,0,0-1.486.506,2.7,2.7,0,0,0-.822,1.544L.88-8.732a3.554,3.554,0,0,1,1.266-2.523,4.486,4.486,0,0,1,3.084-1.038,4.649,4.649,0,0,1,3.2,1.05A3.179,3.179,0,0,1,9.612-8.8a2.688,2.688,0,0,1-.436,1.461A9.566,9.566,0,0,1,7.313-5.462a3.558,3.558,0,0,0-.917.988A3.313,3.313,0,0,0,6.234-3.138ZM4.117,0V-2.333H6.45V0Z" transform="translate(1042.676 37.676)"/>
  </g>
</svg>
