<svg xmlns="http://www.w3.org/2000/svg" width="22" height="23" viewBox="0 0 22 23">
  <g id="view_site" transform="translate(-2604 -6883)">
    <rect id="Rectangle_3993" data-name="Rectangle 3993" width="22" height="23" transform="translate(2604 6883)" fill="#fff" opacity="0"/>
    <g id="_32._Veiw" data-name="32. Veiw" transform="translate(2605.702 6884.092)">
      <path id="Path_21097" data-name="Path 21097" d="M19.093,9.853C17.523,6.443,13.975,3,9.583,3S1.643,6.443.073,9.853a.8.8,0,0,0,0,.668c1.57,3.411,5.118,6.853,9.51,6.853s7.94-3.443,9.51-6.853A.8.8,0,0,0,19.093,9.853Zm-9.51,5.924c-3.523,0-6.505-2.837-7.9-5.59C3.078,7.434,6.06,4.6,9.583,4.6s6.505,2.837,7.9,5.59C16.088,12.941,13.106,15.777,9.583,15.777Z" transform="translate(0)" fill="#bababa"/>
      <path id="Path_21098" data-name="Path 21098" d="M10.993,7a3.993,3.993,0,1,0,3.993,3.993A3.993,3.993,0,0,0,10.993,7Zm0,6.389a2.4,2.4,0,1,1,2.4-2.4A2.4,2.4,0,0,1,10.993,13.389Z" transform="translate(-1.41 -0.806)" fill="#bababa"/>
    </g>
  </g>
</svg>
